<svg xmlns="http://www.w3.org/2000/svg" fill="none" viewBox="0 0 48 48" height="48" width="48">
<path fill="#6D4833" d="M24.6773 45.5717L23.5883 45.5821C23.5531 45.5829 23.5195 45.5973 23.4949 45.6224C23.4702 45.6475 23.4564 45.6812 23.4564 45.7163L23.4779 47.8693C23.4785 47.9039 23.4926 47.9369 23.5173 47.9613C23.5419 47.9857 23.5751 47.9996 23.6098 48H23.6116C23.6292 47.9999 23.6465 47.9962 23.6626 47.9891C23.6787 47.982 23.6932 47.9718 23.7051 47.9589C23.7174 47.947 23.727 47.9327 23.7334 47.9169C23.7398 47.901 23.7429 47.884 23.7423 47.867L23.7359 47.1013L24.6913 47.0926C24.7912 47.0919 24.89 47.0714 24.9819 47.0323C25.0739 46.9932 25.157 46.9364 25.2267 46.865C25.2963 46.7937 25.351 46.7093 25.3876 46.6167C25.4242 46.5241 25.4419 46.4253 25.4397 46.3258C25.4385 46.1254 25.3576 45.9336 25.2148 45.7923C25.0719 45.651 24.8787 45.5717 24.6773 45.5717ZM25.1759 46.3275C25.1767 46.4589 25.1253 46.5851 25.0328 46.6788C24.9404 46.7726 24.8145 46.8261 24.6826 46.8278L23.733 46.837L23.7237 45.8458L24.6797 45.836C24.8106 45.8367 24.9361 45.8887 25.0289 45.9806C25.1217 46.0726 25.1745 46.1972 25.1759 46.3275ZM28.096 45.2924C28.0845 45.2772 28.0696 45.2649 28.0524 45.2567C28.0352 45.2484 28.0163 45.2444 27.9972 45.2449L27.9716 45.2473C27.9493 45.2516 27.9285 45.2613 27.9109 45.2755C27.8932 45.2897 27.8794 45.308 27.8705 45.3288L27.0157 47.664C27.0075 47.684 27.0043 47.7057 27.0065 47.7271C27.0088 47.7486 27.0163 47.7692 27.0284 47.7871C27.0405 47.805 27.0569 47.8197 27.0761 47.8298C27.0952 47.8399 27.1166 47.8451 27.1383 47.845L27.1615 47.8433C27.2301 47.8329 27.2534 47.771 27.2661 47.7392L27.448 47.2465L29.1431 46.951L29.4842 47.3558C29.5051 47.3772 29.5417 47.4165 29.597 47.4165L29.6208 47.4148C29.6554 47.4083 29.6861 47.3884 29.7061 47.3595C29.726 47.3305 29.7336 47.2949 29.7271 47.2603C29.7243 47.2371 29.7134 47.2157 29.6963 47.1996L28.096 45.2924ZM28.9473 46.7167L27.552 46.9596L28.0396 45.6353L28.9473 46.7167ZM32.5652 43.9391L30.529 44.6684C30.5127 44.6743 30.4978 44.6835 30.4851 44.6953C30.4724 44.7071 30.4623 44.7214 30.4552 44.7372C30.4396 44.7689 30.4371 44.8055 30.4483 44.839C30.4619 44.8713 30.4871 44.8973 30.5191 44.912C30.551 44.9267 30.5873 44.9289 30.6209 44.9182L31.5117 44.5984L32.2009 46.4999C32.2064 46.5164 32.2152 46.5316 32.2268 46.5446C32.2384 46.5577 32.2525 46.5682 32.2683 46.5757C32.2841 46.5832 32.3013 46.5873 32.3187 46.588C32.3362 46.5887 32.3536 46.5859 32.37 46.5797C32.4028 46.5674 32.4294 46.5429 32.4443 46.5114C32.4592 46.4798 32.4611 46.4437 32.4496 46.4108L31.7633 44.5093L32.6541 44.1884C32.6876 44.1762 32.7153 44.1518 32.7314 44.1201C32.7416 44.0964 32.7447 44.0702 32.7403 44.0447C32.736 44.0192 32.7243 43.9955 32.7068 43.9765C32.6893 43.9574 32.6666 43.9437 32.6415 43.9371C32.6164 43.9305 32.5899 43.9312 32.5652 43.9391ZM34.4335 43.1752C34.4169 43.1444 34.3889 43.1214 34.3554 43.111C34.3219 43.1006 34.2857 43.1037 34.2545 43.1197C34.2234 43.1359 34.1999 43.1638 34.1893 43.1971C34.1786 43.2304 34.1816 43.2666 34.1976 43.2978L35.2058 45.205C35.2171 45.2264 35.2341 45.2442 35.2549 45.2565C35.2757 45.2689 35.2995 45.2753 35.3237 45.275C35.3466 45.2749 35.3691 45.269 35.389 45.2577C35.4088 45.2464 35.4254 45.2302 35.4371 45.2106C35.4488 45.191 35.4552 45.1688 35.4557 45.146C35.4562 45.1233 35.4508 45.1008 35.44 45.0807L34.4335 43.1752ZM37.3006 42.5211C36.8979 42.8057 36.6132 42.8456 36.4522 42.6218C36.3703 42.5061 36.3645 42.3835 36.4365 42.2499C36.5034 42.1267 36.6359 41.9954 36.8288 41.859C37.0284 41.7143 37.255 41.6107 37.4953 41.5542C37.5129 41.5503 37.5295 41.5429 37.5442 41.5324C37.5588 41.5219 37.5712 41.5086 37.5805 41.4933C37.5898 41.478 37.5959 41.4609 37.5985 41.4431C37.601 41.4254 37.5999 41.4073 37.5953 41.39C37.5867 41.3619 37.5691 41.3375 37.5451 41.3204C37.5212 41.3034 37.4922 41.2947 37.4628 41.2957C37.4496 41.2957 37.4365 41.2975 37.4238 41.3009C37.2001 41.3489 36.8979 41.486 36.6731 41.6421C36.4389 41.8092 36.2715 41.9995 36.1884 42.1955C36.0989 42.4055 36.1158 42.6067 36.2366 42.775C36.4761 43.1139 36.9375 43.1006 37.4541 42.7368C37.8556 42.4523 38.1432 42.4113 38.3019 42.6362C38.3856 42.753 38.3908 42.8745 38.317 43.0075C38.2502 43.1312 38.1188 43.2637 37.9277 43.3996L37.8382 43.4615C37.6355 43.6051 37.4071 43.7087 37.1652 43.7668C37.1479 43.7703 37.1316 43.7775 37.1174 43.7879C37.1031 43.7982 37.0913 43.8116 37.0827 43.8269C37.0738 43.8426 37.0682 43.86 37.0664 43.8779C37.0646 43.8958 37.0666 43.9139 37.0723 43.931C37.0773 43.9478 37.0857 43.9634 37.0968 43.977C37.1079 43.9905 37.1216 44.0017 37.1371 44.01C37.1526 44.0183 37.1696 44.0234 37.1871 44.0252C37.2046 44.0269 37.2222 44.0252 37.239 44.0201C37.4668 43.9738 37.7679 43.835 37.9927 43.6777L38.0811 43.6159C38.5837 43.2596 38.7563 42.8155 38.5204 42.4824C38.2781 42.1441 37.8155 42.1574 37.3006 42.5211ZM40.1986 40.0888C39.8482 40.4369 39.5768 40.5254 39.3787 40.3288C39.1892 40.1379 39.2712 39.865 39.6227 39.5145C39.7952 39.3389 40.0013 39.1995 40.2288 39.1045C40.2459 39.0971 40.2612 39.0864 40.274 39.073C40.2868 39.0596 40.2967 39.0437 40.3032 39.0264C40.3094 39.01 40.3123 38.9925 40.3117 38.9749C40.3111 38.9573 40.307 38.9401 40.2997 38.9241C40.2678 38.8587 40.1748 38.8379 40.1161 38.8645C39.9022 38.9495 39.628 39.1357 39.435 39.3266C39.2293 39.5301 39.0951 39.747 39.0463 39.9517C38.9946 40.1749 39.0445 40.3693 39.1921 40.5156C39.4891 40.8122 39.936 40.7249 40.3869 40.2761C40.7385 39.9292 41.0098 39.8395 41.2062 40.035C41.3986 40.227 41.3167 40.4994 40.9633 40.8504L40.8878 40.9262C40.7077 41.1037 40.513 41.235 40.2742 41.3385C40.2579 41.3453 40.2431 41.3552 40.2308 41.3677C40.2184 41.3802 40.2087 41.3951 40.2021 41.4114C40.1901 41.4461 40.1924 41.4841 40.2085 41.5172C40.2346 41.564 40.2782 41.5895 40.3311 41.5895C40.3516 41.5891 40.3718 41.5852 40.391 41.5779C40.6013 41.4952 40.882 41.3038 41.0737 41.1135L41.1505 41.0383C41.5869 40.6052 41.6845 40.1373 41.3945 39.8488C41.0964 39.5515 40.6501 39.64 40.1986 40.0888ZM44.1083 37.0255L43.1407 38.3816L42.4742 37.9114L43.2331 36.8485C43.2432 36.8342 43.2503 36.818 43.254 36.8009C43.2577 36.7839 43.2579 36.7662 43.2546 36.7491C43.2525 36.7319 43.2466 36.7153 43.2375 36.7006C43.2284 36.6858 43.2162 36.6731 43.2018 36.6635C43.1729 36.644 43.1376 36.6364 43.1032 36.6421C43.0688 36.6478 43.0379 36.6664 43.017 36.6941L42.258 37.7576L41.5927 37.2875L42.5591 35.9319C42.5794 35.9031 42.5876 35.8675 42.5818 35.8328C42.5761 35.7981 42.5568 35.767 42.5283 35.7463C42.499 35.7272 42.4635 35.7198 42.429 35.7257C42.3945 35.7316 42.3635 35.7503 42.3423 35.7781L41.3004 37.2412C41.2799 37.2699 41.2712 37.3052 41.276 37.3401C41.2825 37.3748 41.302 37.4058 41.3306 37.4268L43.0966 38.6731C43.1186 38.6888 43.145 38.6971 43.1721 38.6968C43.1937 38.6971 43.2149 38.6922 43.2342 38.6825C43.2534 38.6728 43.27 38.6587 43.2825 38.6413L44.3262 37.1776C44.3457 37.1487 44.3534 37.1136 44.3477 37.0793C44.3452 37.0619 44.3391 37.0453 44.3298 37.0305C44.3205 37.0157 44.3082 37.0029 44.2936 36.9931C44.2645 36.9738 44.229 36.9664 44.1945 36.9724C44.16 36.9785 44.1291 36.9975 44.1083 37.0255ZM46.2136 33.3758C46.1962 33.3684 46.1775 33.3645 46.1585 33.3643C46.1396 33.3641 46.1208 33.3676 46.1032 33.3746L45.1984 33.6927C45.2494 33.5202 45.2365 33.3352 45.1619 33.1714C45.0874 33.0076 44.9562 32.876 44.7922 32.8004C44.7023 32.7569 44.6046 32.7315 44.5048 32.7257C44.405 32.7198 44.305 32.7337 44.2106 32.7664C44.1161 32.7991 44.0291 32.8501 43.9545 32.9164C43.8799 32.9826 43.8192 33.0629 43.7759 33.1526L43.3052 34.1316C43.2906 34.1633 43.2891 34.1994 43.3009 34.2321C43.3128 34.2649 43.337 34.2917 43.3685 34.3069L45.3222 35.2345C45.3459 35.2456 45.3724 35.2496 45.3984 35.2458C45.4244 35.2421 45.4487 35.2308 45.4683 35.2134C45.4879 35.196 45.5019 35.1733 45.5085 35.148C45.5152 35.1228 45.5143 35.0961 45.5058 35.0714C45.4934 35.0385 45.4689 35.0114 45.4373 34.9956L44.7411 34.6666L45.0502 34.0241L46.1886 33.6227C46.2073 33.6176 46.2248 33.6087 46.2399 33.5965C46.255 33.5844 46.2674 33.5693 46.2764 33.5522C46.2915 33.5205 46.2934 33.4841 46.2817 33.4511C46.2699 33.418 46.2454 33.3909 46.2136 33.3758ZM44.9148 33.6933L44.5034 34.5532L43.6039 34.1253L44.0136 33.2729C44.0412 33.2137 44.0804 33.1606 44.1289 33.1168C44.1775 33.0729 44.2343 33.0391 44.2961 33.0174C44.3579 32.9957 44.4235 32.9865 44.4889 32.9903C44.5543 32.9942 44.6184 33.011 44.6772 33.0398C44.7362 33.0668 44.7892 33.1053 44.8332 33.1529C44.8772 33.2005 44.9112 33.2563 44.9333 33.3171C44.9554 33.3779 44.9652 33.4424 44.962 33.507C44.9589 33.5716 44.9428 33.6349 44.9148 33.6933ZM46.9743 31.254L44.9143 30.5965C44.8804 30.586 44.8438 30.5892 44.8123 30.6053C44.7808 30.6214 44.7569 30.6492 44.7457 30.6826C44.7359 30.7161 44.7395 30.752 44.7556 30.7829C44.7717 30.8138 44.7992 30.8373 44.8323 30.8486L46.8923 31.5067C46.9256 31.5173 46.9618 31.5144 46.9929 31.4985C47.024 31.4827 47.0476 31.4553 47.0585 31.4223C47.0644 31.4061 47.0669 31.3888 47.0658 31.3716C47.0647 31.3544 47.0601 31.3376 47.0521 31.3222C47.0448 31.306 47.034 31.2915 47.0206 31.2798C47.0072 31.268 46.9914 31.2592 46.9743 31.254ZM47.9761 27.2949C47.9662 27.2803 47.9534 27.2679 47.9385 27.2584C47.9236 27.2488 47.907 27.2424 47.8895 27.2394L47.868 27.2371C47.8366 27.2371 47.8062 27.248 47.782 27.2678C47.7577 27.2876 47.7411 27.3152 47.7349 27.3458L47.4456 28.983L46.6419 28.8419L46.8703 27.5592C46.8763 27.5244 46.8683 27.4887 46.8479 27.4599C46.8276 27.431 46.7965 27.4114 46.7616 27.4054L46.7389 27.403C46.7076 27.4031 46.6774 27.414 46.6534 27.434C46.6294 27.454 46.6132 27.4817 46.6076 27.5123L46.3792 28.7956L45.5761 28.6545L45.8673 27.0179C45.8732 26.9832 45.865 26.9475 45.8445 26.9188C45.824 26.8901 45.7929 26.8706 45.758 26.8646L45.7354 26.8635C45.6714 26.8635 45.6157 26.9097 45.6064 26.9722L45.2914 28.7389C45.2883 28.7559 45.2886 28.7733 45.2923 28.7902C45.2959 28.807 45.3029 28.823 45.3128 28.8372C45.3227 28.8514 45.3352 28.8635 45.3498 28.8728C45.3644 28.8822 45.3807 28.8885 45.3977 28.8916L47.5298 29.2675L47.5525 29.2692C47.6176 29.2692 47.6716 29.223 47.6844 29.1594L47.9982 27.3938C48.0039 27.3592 47.996 27.3238 47.9761 27.2949ZM42.8792 24.0778C42.8792 13.7695 34.4527 5.38519 24.0951 5.38519C13.7386 5.38519 5.31262 13.7701 5.31262 24.0778C5.31262 34.3844 13.7392 42.7698 24.0951 42.7698C34.4532 42.7698 42.8792 34.3844 42.8792 24.0778ZM24.17 23.101L18.2648 17.2231C19.9243 15.7774 22.0552 14.981 24.2607 14.9822C26.4793 14.9822 28.5527 15.7814 30.1629 17.1352L24.17 23.101ZM23.4227 24.4572V33.1306C18.7756 32.7084 15.1228 28.8101 15.1228 24.0778C15.1209 21.9622 15.8633 19.9127 17.2212 18.2849L23.4227 24.4572ZM24.9156 42.3586V34.6336C27.011 34.5121 29.0221 33.7695 30.69 32.5014C32.4973 31.13 33.8188 29.2216 34.4631 27.0526L33.0313 26.6351C31.962 30.2732 28.6806 32.8721 24.9156 33.145V24.4589L31.2206 18.1831C32.1038 19.2115 32.744 20.4239 33.094 21.731L34.534 21.3493C34.1172 19.7893 33.3453 18.3457 32.2782 17.13L37.6784 11.7541C40.6623 15.0088 42.4841 19.3351 42.4841 24.0772C42.4847 33.8945 34.6764 41.9301 24.9156 42.3586ZM36.6289 10.6992L31.22 16.0833C29.2884 14.416 26.8175 13.4978 24.2607 13.4971C21.5562 13.4971 19.0859 14.5091 17.2078 16.1706L11.6391 10.6281C14.9177 7.61803 19.294 5.77612 24.0956 5.77612C28.9345 5.7767 33.3422 7.64752 36.6289 10.6992ZM5.70777 24.0778C5.70777 19.2987 7.55859 14.9423 10.5838 11.6795L16.1647 17.2335C14.528 19.142 13.6297 21.5693 13.6317 24.0784C13.6317 29.6295 17.9528 34.1929 23.4233 34.6197V42.3644C13.5939 42.0105 5.70777 33.9443 5.70777 24.0778ZM4.17599 13.8296C4.4505 13.9874 4.76493 14.0629 5.08153 14.0471C5.39812 14.0313 5.7034 13.9249 5.96071 13.7407C6.21801 13.5564 6.41639 13.3022 6.53202 13.0085C6.64766 12.7147 6.67562 12.394 6.61255 12.0849C6.60798 12.0623 6.59898 12.0409 6.58607 12.0218C6.57315 12.0028 6.55659 11.9864 6.53731 11.9737C6.51804 11.9611 6.49643 11.9523 6.47375 11.9479C6.45106 11.9436 6.42773 11.9437 6.4051 11.9484C6.38234 11.9529 6.3607 11.9618 6.34143 11.9747C6.32216 11.9875 6.30564 12.0041 6.29283 12.0233C6.28002 12.0426 6.27118 12.0641 6.26681 12.0868C6.26244 12.1095 6.26263 12.1328 6.26738 12.1554C6.33047 12.4638 6.27796 12.7845 6.11978 13.057C5.94743 13.352 5.66465 13.5671 5.33335 13.6551C5.00206 13.7431 4.64921 13.6969 4.35206 13.5266C4.05545 13.3551 3.83927 13.0735 3.75093 12.7436C3.66259 12.4138 3.70928 12.0625 3.88078 11.7668C4.04113 11.4921 4.29772 11.286 4.60135 11.1879C4.62333 11.1808 4.64369 11.1695 4.66126 11.1545C4.67884 11.1396 4.69328 11.1214 4.70378 11.1009C4.71427 11.0804 4.72061 11.0581 4.72243 11.0351C4.72425 11.0122 4.72151 10.9892 4.71438 10.9673C4.70724 10.9454 4.69585 10.9252 4.68085 10.9077C4.66584 10.8902 4.64753 10.8758 4.62694 10.8654C4.60635 10.8549 4.5839 10.8486 4.56087 10.8468C4.53783 10.845 4.51466 10.8477 4.49269 10.8548C4.1899 10.9521 3.92199 11.1348 3.72143 11.3806C3.52087 11.6264 3.39627 11.9249 3.36275 12.2398C3.32923 12.5547 3.38821 12.8725 3.53256 13.1547C3.67691 13.4369 3.90042 13.6713 4.17599 13.8296ZM5.60027 34.0807C5.6032 34.0579 5.60157 34.0347 5.59547 34.0124C5.58937 33.9902 5.57893 33.9694 5.56473 33.9512C5.55053 33.933 5.53286 33.9177 5.51274 33.9063C5.49261 33.8949 5.47042 33.8876 5.44744 33.8847L4.86982 33.8107L3.48563 32.0798L4.24688 31.0649C4.2608 31.0465 4.2709 31.0255 4.27659 31.0032C4.28229 30.9809 4.28347 30.9577 4.28006 30.9349C4.27666 30.9122 4.26873 30.8903 4.25675 30.8706C4.24477 30.8509 4.22897 30.8338 4.21027 30.8203C4.1918 30.8065 4.17077 30.7964 4.14839 30.7908C4.126 30.7851 4.10271 30.7839 4.07986 30.7872C4.05701 30.7905 4.03504 30.7983 4.01524 30.8102C3.99543 30.822 3.97817 30.8376 3.96446 30.8561L1.95966 33.5285C1.94144 33.5531 1.92996 33.582 1.92636 33.6124C1.92276 33.6427 1.92715 33.6735 1.9391 33.7017C1.95106 33.7298 1.97016 33.7544 1.99455 33.773C2.01894 33.7916 2.04776 33.8036 2.0782 33.8078L5.40328 34.2311C5.42614 34.2342 5.4494 34.2327 5.4717 34.2268C5.494 34.2209 5.51491 34.2107 5.53323 34.1967C5.55154 34.1828 5.56689 34.1653 5.57839 34.1454C5.5899 34.1255 5.59734 34.1035 5.60027 34.0807ZM3.2683 32.3701L4.37007 33.7471L2.42221 33.4978L3.2683 32.3701ZM18.6978 3.92034C18.7431 3.96429 18.8064 3.98106 18.868 3.96429C18.8976 3.95604 18.9245 3.9403 18.9461 3.9186C18.9676 3.89691 18.9832 3.87001 18.9912 3.84053L19.8582 0.618209C19.87 0.573128 19.8634 0.525263 19.8399 0.484992C19.8164 0.44472 19.7779 0.415289 19.7327 0.40308C19.7103 0.397053 19.6869 0.395492 19.6639 0.398485C19.6409 0.401479 19.6187 0.408968 19.5987 0.420522C19.5786 0.432077 19.561 0.447469 19.5469 0.465813C19.5328 0.484157 19.5225 0.505093 19.5165 0.527415L18.7292 3.46001L16.55 1.33589C16.5158 1.30742 16.472 1.29285 16.4274 1.2951C16.3829 1.29734 16.3408 1.31623 16.3096 1.34799C16.2784 1.37975 16.2604 1.42205 16.2592 1.46644C16.258 1.51083 16.2736 1.55404 16.303 1.58745L18.6978 3.92034ZM7.35869 36.8907L6.28016 37.7177L4.24223 37.454C4.19594 37.4481 4.14918 37.4607 4.11217 37.4889C4.07515 37.5172 4.05088 37.5589 4.04466 37.6049C4.03872 37.6513 4.05148 37.698 4.08012 37.735C4.10877 37.7719 4.15097 37.7961 4.19749 37.8021L6.13372 38.0508L5.88211 39.9795C5.87901 40.0022 5.88049 40.0254 5.88646 40.0476C5.89243 40.0698 5.90277 40.0906 5.91688 40.1088C5.93099 40.1269 5.94859 40.1422 5.96866 40.1535C5.98872 40.1649 6.01086 40.1722 6.03377 40.1749C6.08 40.1808 6.12669 40.1683 6.16361 40.14C6.20054 40.1117 6.22469 40.07 6.23077 40.024L6.49517 37.9947L7.57312 37.1683C7.59156 37.1544 7.60704 37.1369 7.61865 37.117C7.63025 37.097 7.63776 37.075 7.64074 37.0521C7.64371 37.0292 7.64209 37.006 7.63597 36.9838C7.62985 36.9615 7.61935 36.9407 7.60508 36.9225C7.59111 36.9042 7.57362 36.8888 7.55362 36.8773C7.53362 36.8657 7.51151 36.8583 7.48858 36.8553C7.46565 36.8523 7.44236 36.8539 7.42006 36.86C7.39776 36.8661 7.3769 36.8766 7.35869 36.8907ZM0.181478 22.4493L3.09048 22.8599C3.11345 22.8631 3.13685 22.8619 3.15933 22.8561C3.1818 22.8504 3.20293 22.8403 3.22149 22.8265C3.24005 22.8126 3.25569 22.7953 3.26751 22.7754C3.27933 22.7555 3.28711 22.7335 3.29038 22.7107C3.29374 22.6879 3.29252 22.6646 3.28678 22.6423C3.28104 22.62 3.2709 22.599 3.25695 22.5806C3.24301 22.5622 3.22553 22.5467 3.20553 22.5351C3.18553 22.5235 3.16341 22.5159 3.14046 22.5129L0.647523 22.1613L3.64195 19.8885C3.67853 19.8603 3.70269 19.819 3.70936 19.7735C3.7155 19.7273 3.70316 19.6807 3.67499 19.6435C3.64682 19.6064 3.6051 19.5818 3.55885 19.5751L0.648685 19.1651C0.604396 19.1624 0.560736 19.1765 0.526386 19.2045C0.492036 19.2324 0.46951 19.2722 0.463287 19.3159C0.457063 19.3596 0.467598 19.4041 0.492797 19.4404C0.517995 19.4768 0.556013 19.5023 0.599291 19.5121L3.09281 19.8637L0.098961 22.1358C0.0714597 22.1569 0.0507952 22.1856 0.0395343 22.2183C0.0282735 22.251 0.0269126 22.2863 0.0356206 22.3197C0.0530538 22.3891 0.110583 22.44 0.181478 22.4493ZM3.628 28.3908C3.62219 28.3447 3.59827 28.3027 3.56146 28.2741C3.52465 28.2455 3.47796 28.2326 3.43159 28.2381L0.932845 28.54L3.23285 25.575C3.24704 25.5569 3.25748 25.5362 3.26356 25.5141C3.26965 25.4919 3.27126 25.4688 3.2683 25.4461C3.26647 25.4231 3.2591 25.4008 3.2468 25.3813C3.22981 25.3511 3.20413 25.3266 3.17306 25.3111C3.142 25.2955 3.10697 25.2896 3.07247 25.294L0.154166 25.6467C0.131289 25.6494 0.109177 25.6566 0.0891 25.6679C0.0690234 25.6791 0.0513778 25.6942 0.0371767 25.7123C0.0229755 25.7303 0.0124987 25.751 0.00634797 25.7731C0.000197249 25.7952 -0.00150618 25.8183 0.00133552 25.841C0.0129576 25.9382 0.101285 26.0059 0.197749 25.9949L2.69766 25.6924L0.395905 28.6574C0.374646 28.6848 0.362004 28.7178 0.359572 28.7523C0.357141 28.7868 0.36503 28.8213 0.382244 28.8513C0.399458 28.8814 0.425226 28.9057 0.456303 28.9212C0.487379 28.9367 0.522372 28.9427 0.556871 28.9384L3.47401 28.5857C3.49705 28.5831 3.51934 28.576 3.53959 28.5648C3.55984 28.5536 3.57765 28.5384 3.59198 28.5203C3.60631 28.5022 3.61687 28.4814 3.62305 28.4591C3.62924 28.4369 3.63092 28.4137 3.628 28.3908ZM8.24139 9.92605C8.67766 9.92559 9.09591 9.75287 9.40435 9.44582C9.71278 9.13876 9.88618 8.72245 9.88649 8.28829C9.88603 7.85422 9.71256 7.43806 9.40414 7.13113C9.09573 6.8242 8.67755 6.65156 8.24139 6.6511C7.80512 6.65141 7.3868 6.82398 7.07826 7.13092C6.76971 7.43787 6.59616 7.85412 6.5957 8.28829C6.59616 8.72251 6.7697 9.13881 7.07822 9.44585C7.38675 9.75289 7.80507 9.92559 8.24139 9.92605ZM8.24139 7.00155C8.9544 7.00155 9.53434 7.5787 9.53434 8.28829C9.53404 8.62951 9.39773 8.95668 9.15534 9.19801C8.91295 9.43934 8.58426 9.57514 8.24139 9.5756C7.89851 9.57514 7.56983 9.43934 7.32743 9.19801C7.08504 8.95668 6.94874 8.62951 6.94843 8.28829C6.94843 7.5787 7.52837 7.00155 8.24139 7.00155ZM34.3289 5.77786C34.6587 5.95714 35.0465 5.99907 35.4073 5.89448C35.7681 5.78989 36.0726 5.54729 36.2541 5.21979L37.0688 3.73759C37.0913 3.6968 37.0966 3.64877 37.0835 3.60409C37.0704 3.55941 37.0401 3.52172 36.9991 3.49933C36.9581 3.47694 36.9098 3.47167 36.8649 3.48468C36.82 3.4977 36.7821 3.52793 36.7596 3.56873L35.942 5.05093C35.8748 5.17278 35.7842 5.28027 35.6752 5.36726C35.5663 5.45424 35.4412 5.51903 35.3071 5.55791C35.173 5.59679 35.0326 5.609 34.8937 5.59385C34.7549 5.5787 34.6204 5.53649 34.498 5.46962C34.3755 5.40275 34.2675 5.31254 34.1801 5.20413C34.0927 5.09572 34.0276 4.97124 33.9886 4.83779C33.9495 4.70434 33.9372 4.56455 33.9524 4.42638C33.9677 4.28821 34.0101 4.15438 34.0773 4.03253L34.8931 2.55033C34.9043 2.53021 34.9113 2.50809 34.9139 2.48526C34.9164 2.46242 34.9144 2.43931 34.908 2.41724C34.9016 2.39517 34.8909 2.37457 34.8765 2.35662C34.862 2.33868 34.8442 2.32373 34.824 2.31265C34.8038 2.30156 34.7815 2.29454 34.7586 2.292C34.7356 2.28946 34.7124 2.29144 34.6902 2.29783C34.6681 2.30422 34.6474 2.3149 34.6293 2.32925C34.6113 2.3436 34.5963 2.36134 34.5851 2.38147L33.7687 3.86366C33.5892 4.1917 33.5474 4.57706 33.6523 4.93567C33.7573 5.29428 34.0005 5.59703 34.3289 5.77786ZM11.7762 5.64427C11.9673 5.96562 12.2785 6.19853 12.6417 6.29196C13.005 6.3854 13.3906 6.33175 13.7142 6.14277C14.0376 5.95263 14.272 5.64263 14.366 5.28076C14.46 4.91888 14.406 4.53466 14.2157 4.21238L13.3516 2.75679C13.3399 2.73693 13.3243 2.71957 13.3058 2.70569C13.2873 2.69182 13.2662 2.68171 13.2438 2.67594C13.1985 2.66428 13.1505 2.671 13.1102 2.69462C13.0699 2.71824 13.0406 2.75682 13.0289 2.80189C13.0172 2.84695 13.024 2.8948 13.0477 2.9349L13.9106 4.3905C14.2093 4.89363 14.0408 5.54364 13.5364 5.84089C13.2931 5.98325 13.003 6.0238 12.7297 5.95366C12.4564 5.88353 12.2222 5.70842 12.0784 5.46673L11.2155 4.01113C11.2037 3.99127 11.1882 3.97391 11.1697 3.96004C11.1512 3.94617 11.1301 3.93606 11.1077 3.93028C11.0624 3.91862 11.0143 3.92534 10.974 3.94896C10.9337 3.97258 10.9045 4.01117 10.8928 4.05623C10.8811 4.10129 10.8878 4.14914 10.9116 4.18925L11.7762 5.64427ZM28.2784 3.6121L30.5186 4.17248C30.5637 4.18367 30.6115 4.17655 30.6514 4.15269C30.6913 4.12884 30.72 4.09019 30.7313 4.04525C30.7426 4.0004 30.7357 3.95292 30.7121 3.91308C30.6885 3.87325 30.6501 3.84427 30.6052 3.83244L28.5335 3.31543L28.8055 2.23631L30.3902 2.63245C30.4126 2.63819 30.436 2.63946 30.459 2.6362C30.482 2.63294 30.5041 2.62521 30.524 2.61345C30.544 2.60169 30.5614 2.58613 30.5754 2.56766C30.5893 2.54919 30.5994 2.52817 30.6052 2.5058C30.616 2.46042 30.6085 2.41259 30.5841 2.37273C30.5597 2.33288 30.5205 2.30421 30.475 2.29298L28.8909 1.89684L29.1629 0.818303L31.2339 1.33531C31.2793 1.34654 31.3273 1.33947 31.3675 1.31564C31.4076 1.29181 31.4367 1.25315 31.4484 1.20808C31.4591 1.16286 31.4516 1.11525 31.4275 1.07546C31.4034 1.03567 31.3646 1.00688 31.3193 0.995265L29.078 0.435465C29.0329 0.424275 28.9851 0.431392 28.9452 0.455251C28.9053 0.47911 28.8766 0.517756 28.8653 0.562692L28.1488 3.39928C28.1432 3.42173 28.1421 3.44506 28.1456 3.46794C28.149 3.49081 28.157 3.51277 28.1691 3.53256C28.1811 3.55235 28.197 3.56956 28.2158 3.58321C28.2345 3.59686 28.2558 3.60668 28.2784 3.6121ZM23.12 3.34319C23.1666 3.34304 23.2112 3.32451 23.2441 3.29166C23.277 3.25882 23.2955 3.21434 23.2955 3.16796V2.47804C23.6838 2.35651 24.0692 2.22577 24.4513 2.08595L25.2544 3.26627C25.2669 3.28636 25.2833 3.30372 25.3027 3.31731C25.3222 3.3309 25.3441 3.34045 25.3673 3.34537C25.3906 3.35029 25.4145 3.35049 25.4378 3.34596C25.4611 3.34142 25.4833 3.33225 25.5029 3.31898C25.5226 3.30572 25.5393 3.28863 25.5521 3.26876C25.565 3.24889 25.5737 3.22664 25.5776 3.20335C25.5816 3.18006 25.5808 3.15621 25.5753 3.13323C25.5698 3.11026 25.5596 3.08863 25.5455 3.06965L24.7872 1.95352C24.9644 1.8795 25.1062 1.8101 25.1736 1.75632C25.3404 1.6361 25.4646 1.46643 25.5286 1.27161C25.5925 1.0768 25.5928 0.866842 25.5294 0.671843C25.4661 0.476844 25.3423 0.306813 25.1759 0.186122C25.0094 0.0654318 24.8089 0.000277948 24.6029 0H23.1206C23.0737 0 23.0288 0.0185223 22.9956 0.0514921C22.9625 0.084462 22.9439 0.129179 22.9439 0.175805V3.16854C22.944 3.21491 22.9627 3.25933 22.9957 3.29207C23.0287 3.32481 23.0734 3.34319 23.12 3.34319ZM23.2955 0.350454H24.6024C24.7338 0.351428 24.8616 0.393716 24.9674 0.471277C25.0733 0.548838 25.1518 0.657704 25.1917 0.782325C25.2317 0.906945 25.2311 1.04095 25.1899 1.16518C25.1488 1.28942 25.0692 1.39754 24.9626 1.4741C24.958 1.47699 24.9534 1.48162 24.9499 1.48451C24.8342 1.58514 24.055 1.86677 23.296 2.11024L23.2955 0.350454ZM37.9881 8.10265L38.4617 7.59895C38.7011 7.71229 39.1608 7.92684 39.5733 8.09744L39.3502 9.50562C39.3431 9.55143 39.3545 9.59817 39.3818 9.63572C39.4091 9.67327 39.4501 9.69862 39.4961 9.70629C39.519 9.71008 39.5424 9.70931 39.565 9.70402C39.5876 9.69872 39.6089 9.68902 39.6278 9.67546C39.6466 9.66191 39.6625 9.64477 39.6746 9.62505C39.6867 9.60532 39.6947 9.5834 39.6983 9.56056L39.9098 8.2293C40.0899 8.29523 40.2405 8.34149 40.3265 8.34727C40.5305 8.37218 40.7372 8.33236 40.9172 8.23348C41.0971 8.1346 41.2411 7.98172 41.3286 7.79662C41.4162 7.61151 41.4428 7.40364 41.4046 7.20262C41.3665 7.00161 41.2655 6.8177 41.1162 6.67712L40.033 5.66971C40.0162 5.65401 39.9965 5.64177 39.9749 5.63369C39.9534 5.62562 39.9304 5.62188 39.9074 5.62269C39.8844 5.6235 39.8618 5.62883 39.8408 5.63839C39.8199 5.64795 39.8011 5.66155 39.7854 5.67839L38.2961 7.26237L38.2897 7.26931L37.7318 7.86323C37.7158 7.87992 37.7033 7.89959 37.695 7.9211C37.6867 7.94261 37.6827 7.96555 37.6833 7.9886C37.6839 8.01165 37.689 8.03435 37.6985 8.05541C37.7079 8.07647 37.7214 8.09547 37.7382 8.11132C37.7726 8.1429 37.8182 8.1597 37.8649 8.15807C37.9117 8.15645 37.956 8.13653 37.9881 8.10265ZM39.9226 6.04561L40.8744 6.93274C40.9708 7.02237 41.036 7.14017 41.0606 7.2691C41.0853 7.39804 41.0681 7.53144 41.0116 7.65002C40.955 7.7686 40.8621 7.86622 40.7461 7.92877C40.6302 7.99131 40.4972 8.01555 40.3666 7.99798L40.3491 7.9974C40.1957 7.99104 39.4345 7.66834 38.7133 7.32888L39.9226 6.04561ZM27.7345 44.4874L27.3458 44.9859C27.3352 45 27.3276 45.0161 27.3233 45.0331C27.319 45.0502 27.3181 45.0679 27.3208 45.0853C27.3266 45.12 27.3475 45.1501 27.3766 45.1715C27.4053 45.1911 27.4405 45.1989 27.4749 45.1934C27.5092 45.1879 27.5402 45.1695 27.5613 45.142L27.8728 44.7476C28.0257 44.8477 28.2296 44.9824 28.2738 45.0131L28.2825 45.0194C28.3111 45.0394 28.3464 45.0475 28.3809 45.042C28.4154 45.0365 28.4464 45.0178 28.4673 44.9899C28.4779 44.9756 28.4854 44.9593 28.4895 44.942C28.4936 44.9248 28.4942 44.9068 28.4911 44.8893C28.4881 44.8718 28.4815 44.8551 28.4718 44.8402C28.4621 44.8253 28.4495 44.8125 28.4347 44.8025L27.9193 44.4596C27.891 44.4393 27.8558 44.4308 27.8212 44.436C27.7867 44.4412 27.7556 44.4596 27.7345 44.4874Z"></path>
</svg>
